<svg id="Layer_1" data-name="Layer 1" filter="url(#darkglow)" xmlns="http://www.w3.org/2000/svg" xmlns:xlink="http://www.w3.org/1999/xlink" viewBox="0 0 540.81 713.33"><defs><style>.cls-1{fill:none;}.cls-2{clip-path:url(#clip-path);}.cls-3{fill:#eab036;}</style><clipPath id="clip-path" transform="translate(0 0)"><rect class="cls-1" width="540.81" height="713.33"/></clipPath></defs><title>G-big-letter-art</title><g class="cls-2"><path class="cls-3" d="M540.81,404.88v295l-6.44-9.18s-5.63-7.46-8.27-10.65c-18.94-22.85-43.13-30.61-71.17-27.38-19.4,2.23-37,9.49-53.5,20.27-15.12,9.88-64.5,38.65-70.77,40.37,16.16-18,43.54-48,49.78-71.41,4.75-17.79,6.19-36.36,6.19-54.62V404.88Z" transform="translate(0 0)"/><path class="cls-3" d="M540.81,251V0L533,15.58s-4.23,7.24-10.49,11.58C505,39.34,483.22,43.55,459,42.33c-29.48-1.47-55.69-13.68-81-22.45-11-3.8-34.49-10.41-45.72-11.08,96.5,57.31,169.5,131,202.15,223.26Z" transform="translate(0 0)"/><path class="cls-3" d="M249.76,697.59c-38.12-41.46-55.34-88.32-68.72-151.42-11.28-53.23-17.22-116.88-17.22-185.1S169.76,229.2,181,176c13.38-63.11,30.6-110,68.72-151.43C254.68,19.19,260.21,14.41,266,8.8a20.51,20.51,0,0,0-2.46.22C225.39,18.52,178.76,35,147.24,58.81,93.22,99.7,55.49,153.15,30,216,10.57,263.72.28,312.18,0,361.07.28,410,10.57,458.42,30,506.14,55.49,569,93.22,622.43,147.24,663.32c31.52,23.86,78.15,40.29,116.34,49.8a21.46,21.46,0,0,0,2.46.21c-5.83-5.61-11.36-10.38-16.28-15.74" transform="translate(0 0)"/></g></svg>
