<svg id="Layer_1" data-name="Layer 1" xmlns="http://www.w3.org/2000/svg" xmlns:xlink="http://www.w3.org/1999/xlink" viewBox="0 0 703.33 708.17"><defs><style>.cls-1{fill:none;}.cls-2{clip-path:url(#clip-path);}.cls-3{fill:#00aeef;}</style><clipPath id="clip-path" transform="translate(0 0)"><rect class="cls-1" width="703.33" height="708.17"/></clipPath></defs><title>Meridian-big-letter-art</title><g class="cls-2"><path class="cls-3" d="M703.33,0h-169V708.17h169ZM0,708.17c4.84-2.8,12.07-7,16.16-9.36C35,687.7,52.6,669.29,68.3,640.81c15.79-28.64,27.93-64.57,36-108.78,3.92-21.46,6.82-43.66,8.91-66.57.32-3.48.33-7.48,1.86-12,1.54,4.56,1.55,8.56,1.87,12,2.09,22.91,5,45.11,8.91,66.57,8.07,44.21,20.22,80.14,36,108.78,15.7,28.48,33.25,46.89,52.14,58,4.09,2.4,11.31,6.56,16.16,9.36Zm99.43-654V0H265.35l171.7,440.69L354.18,708.17Z" transform="translate(0 0)"/></g></svg>