<svg xmlns="http://www.w3.org/2000/svg" xmlns:xlink="http://www.w3.org/1999/xlink" viewBox="0 0 576.97 708.17"><defs><style>.cls-1{fill:none;}.cls-2{isolation:isolate;}.cls-3{clip-path:url(#clip-path);}.cls-4{mix-blend-mode:overlay;}.cls-5{clip-path:url(#clip-path-3);}.cls-6{fill:#f6871f;}</style><clipPath id="clip-path" transform="translate(0 0)"><rect class="cls-1" width="576.97" height="708.17"/></clipPath><clipPath id="clip-path-3" transform="translate(0 0)"><rect class="cls-1" x="-17" y="-13" width="610.97" height="722.17"/></clipPath></defs><title>Radian-big-letter-art</title><g class="cls-2"><g id="Layer_1" data-name="Layer 1"><g class="cls-3"><g class="cls-3"><g class="cls-4"><g class="cls-5"><rect class="cls-6" y="0.34" width="165.84" height="707.83"/><path class="cls-6" d="M246.51,0c8.65.62,17.32,1,25.94,1.9a395.58,395.58,0,0,1,61.11,10.72c22.79,6,44.85,13.82,65.37,25.58A200.71,200.71,0,0,1,444.1,73.47a141.25,141.25,0,0,1,26.55,38,131.79,131.79,0,0,1,11.73,43.14c2.32,23.43-.32,46.18-8.89,68.18a138,138,0,0,1-25.94,42,193.38,193.38,0,0,1-85.36,55.94,203.59,203.59,0,0,1-53.53,9.84,7,7,0,0,0-3.07.76c4,.38,8.06.73,12.08,1.16a337.2,337.2,0,0,1,68.79,14.37c21.93,7.16,42.92,16.38,61.78,29.84,33.16,23.66,57.37,54.06,69.27,93.51,5.4,17.92,7.28,36.32,7.33,55,.09,33.08-.11,66.17.29,99.25.21,17.46,2.18,34.79,8.82,51.2,7.55,18.68,21.49,28.54,41.67,29.49a2,2,0,0,1,1.35.45c-1.57.3-3.15.64-4.73.91s-3.26.53-4.9.68a287.34,287.34,0,0,1-45.26.17,242.73,242.73,0,0,1-46.4-7.36c-22.72-6-43.71-15.62-62-30.57-18.8-15.38-32.38-34.59-41.24-57.17A174.12,174.12,0,0,1,361,564.7c-1.18-12.69-1.8-25.45-2-38.19-.33-21.71.05-43.42-.19-65.13-.24-21.22-3.58-41.93-12-61.58-11.59-27-31.36-45.75-58.23-57.23a164.7,164.7,0,0,0-39.7-11,1.81,1.81,0,0,1-1.26-.68c3.22-.64,6.45-1.24,9.66-1.93,17.87-3.85,33.66-11.62,46.51-24.88,9.47-9.77,15.07-21.72,19-34.51a218,218,0,0,0,8.51-44,596.56,596.56,0,0,0,1.9-68.43c-.58-25.7-2.91-51.23-9.79-76.14-3.92-14.18-9.25-27.76-17.54-40C292.34,21,273.62,8.35,250.61,1.78L246.43.6c0-.2,0-.4.08-.6" transform="translate(0 0)"/></g></g></g></g></g></g></svg>