<svg xmlns="http://www.w3.org/2000/svg" xmlns:xlink="http://www.w3.org/1999/xlink" viewBox="0 0 612 709.48"><defs><style>.cls-1{fill:none;}.cls-2{isolation:isolate;}.cls-3{clip-path:url(#clip-path);}.cls-4{mix-blend-mode:overlay;}.cls-5{clip-path:url(#clip-path-3);}.cls-6{fill:#eab036;}</style><clipPath id="clip-path" transform="translate(0 0)"><rect class="cls-1" width="612" height="709.48"/></clipPath><clipPath id="clip-path-3" transform="translate(0 0)"><rect class="cls-1" x="-17" y="-13" width="646" height="723.48"/></clipPath></defs><title>Scott-Brand-Slide-Image</title><g class="cls-2"><g id="Layer_1" data-name="Layer 1"><g class="cls-3"><g class="cls-3"><g class="cls-4"><g class="cls-5"><path class="cls-6" d="M415,704.8a69,69,0,0,0,6.75-3.26c21.9-13.47,34.29-31.62,39.8-52.89,4.84-18.69,6.07-37.58,1.5-56.41-5.41-22.3-18.61-41.38-39-57.29-27.08-21.13-58.23-37.77-91.37-52.08-30.12-13-60.79-25.18-90.83-38.28-29.47-12.85-58.83-25.89-87.54-39.77-35.12-17-66.91-37.36-93-62.95C22,303.41,2.05,259.42.15,209.84-2.81,132.66,38.33,73,113.27,26.66,130.55,16,150.07,8.27,170.44,2c2.3-.71,4.87-.89,11.21-2-6.15,4.71-9.49,7.45-13.06,10-29.77,21.12-44.1,47.86-45.43,79.33-.93,22,7.17,41.72,25.14,58.22a246.72,246.72,0,0,0,34.37,25.91c26.9,17.1,56.87,30.34,87.81,42.24,56.94,21.9,113.68,44.13,168.58,69.21,31,14.15,59.88,30.52,85.68,50.37,43.51,33.5,72.86,73.35,82.55,121.12,12.7,62.59.57,121.51-46.91,174-33.09,36.55-76.9,61.49-130.76,75.12-4,1-8.41,1.23-12.62,1.82l-2-2.49" transform="translate(0 0)"/><path class="cls-6" d="M1.39,432.47c4.84,7.2,6,11.72,7.55,16.18,5.18,15,10.06,30,16,44.73,12.45,30.77,34.45,86.1,57.91,112.33,28.79,32.18,61.49,61.6,95.15,90.36,4.47,3.83,8.95,7.64,13.5,11.52-4.58,3.91-8,.67-10.88-.3-23.81-8-72.72-36.56-92.88-38.72S38,665.49,16.05,689.84c-4.13,4.59-7.71,9.51-11.75,14.52-1.5-1.56-2.82-2.3-2.82-3-.09-88.43-.09-176.86-.09-268.85" transform="translate(0 0)"/><path class="cls-6" d="M381.13,0c7.92,2.33,15.9,4.57,23.77,7,22.18,6.91,44.62,13.1,68,16.87,4.52.72,9.1,1.23,13.65,1.79,18,2.21,34.24.13,46-12.76.55-.59,2.3-.46,4.89-.92a56.49,56.49,0,0,1,.84,5.81c1.71,41.65.61,175.24-1.69,190.41-4.14-3.94-4.88-8.08-6.27-12.05A399.67,399.67,0,0,0,465.52,79.31c-21.2-26.78-46-51-76.79-70.95-3.07-2-5.93-4.19-8.88-6.29.42-.69.85-1.38,1.28-2.07" transform="translate(0 0)"/></g></g></g></g></g></g></svg>