<?xml version="1.0" encoding="utf-8"?>
<!-- Generator: Adobe Illustrator 21.1.0, SVG Export Plug-In . SVG Version: 6.00 Build 0)  -->
<svg version="1.1" id="Layer_1" xmlns="http://www.w3.org/2000/svg" xmlns:xlink="http://www.w3.org/1999/xlink" x="0px" y="0px"
	 viewBox="0 0 421.7 63.6" style="enable-background:new 0 0 421.7 63.6;" xml:space="preserve">
<g>
	<g>
		<path d="M380.5,58.9c-4.2,0.4-8.5,0.1-12.6-1.2c-1.9-0.6-3.5-1.6-5.3-2.4c-2.8-1.3-4-0.3-6.6,0.8c-7.5,3.2-16.1,3.4-23.8,0.8
			c-4-1.3-6.2-0.5-10.2-0.2c-4.8,0.4-9.8,0.5-14.5-0.3c-6.2-1.1-13.4-3-15-9.9c-1.4-6.2,3.8-12.2,9.2-14.5c1.6-0.7,6.9-2.5,8.4-1.2
			c2.9,2.6-3.3,5.8-4.6,7c-2.3,2.1-4.6,4.2-4.8,7.4c-0.4,4.7,4,5.9,7.9,6.8c3.7,0.9,9.1,1.7,12.9,0.5c4-1.2,2.1-4.7,1.7-8.1
			c-0.8-7,3.3-15.8,10.3-18.2c4.8-1.6,12.6-1.6,15.4,3.2c3.2,5.6-0.3,13.6-5,17.2c-1.7,1.3-6.6,2.2-6.5,4.8c0.1,3.6,7.1,2.6,9.2,2.4
			c7.5-0.8,15.1-4.8,19.9-10.6c2.3-2.8,4.5-6,6.3-9.2c1.8-3.3,2.6-8.2,5.1-11c4.7-5.6,10.9,4.7,12.8,8.7c1.5,3.2,2.4,6.6,2.5,10.1
			c0,2.4-2.3,8.2-1.4,10.1c1.6,3.1,17.6-3.1,20.4-4.7c2.7-1.5,4.6-4.8,4.9-7.9c0.2-1.5-0.9-3.9,0.5-5c1.2-0.9,3.5,0.1,4,1.3
			c0.4,1-0.6,3.7-0.8,5c-0.3,1.9,0.2,2.2-1,3.9c-2.3,3.3-6.8,5.6-10.4,7.2C401,55.5,389.8,60.6,380.5,58.9z M366.4,50.8
			c2.7,3.2,9.5,3.2,13.2,1.9c6.6-2.2,6.3-10,5.1-15.7c-0.3-1.4-1.7-8.5-4.1-8c-1.5,0.3-2.4,5.2-3.2,6.7
			C374.4,41.2,369.2,45.5,366.4,50.8z M334.7,46.8c2.7-1.5,16.4-10.6,9.4-14.3C338.2,29.4,328.7,42.2,334.7,46.8z"/>
		<path d="M52.2,32.5c-5.5,0.3-16,3.1-20.3-1c-2.3-2.2-2.1-3,0.2-4c1.3-0.5,4.7,0.1,6.2,0.1c2.8,0,5.5-0.2,8.3-0.1
			c5.2,0.1,15.1-1.6,17,5.1c1.1,3.8-2,6.2-4.2,8.8c-2.6,3.1-4.9,6.3-6.9,9.8c-1.8,3.2-3.9,14.8-9.5,11.9c-6.1-3.2,3.9-12.1-6.6-10.8
			c-7.6,1-14,2.4-21.6,0.3c-7.7-2.1-11.9-7-14-14.6C-2.9,25.1,8.3,12.8,18.9,7c12.4-6.8,29.9-9.3,43.3-4.8
			c6.6,2.2,8.9,6.2,10.6,12.9c0.7,2.7,0.8,5.9-3.2,5.2c-0.6-0.1-1.8-0.8-2.2-1.4c-1.5-2.3,0.6-1.9,0.6-4c0.2-13.6-32.4-3.2-38-0.7
			C20,18.7-0.5,32.4,12,44.8c5.3,5.2,16.9,4.2,23.6,2.6c4-0.9,7.1-3.1,9.9-6c2.4-2.5,3.9-6.5,7.1-8.2C52.5,32.9,52.3,32.7,52.2,32.5
			z"/>
		<path d="M212.5,50.4c1.8,2.8,9.7,2,12.6,1.6c4.1-0.6,7.9-2,11.6-3.8c4.9-2.4,13.4-11.2,15.5-17.2c0.6-1.7,1.8-3,3-4.1
			c1.5-1.4,2.3-1.6,4.4-0.8c1.1,0.4,2.8,1.3,3.2,2.5c0.5,1.4-0.9,2.3-0.9,3.4c0,1.7-0.3,1.7,1.6,1.6c1.9,0,5.4-2,7.4-2.5
			c4.6-1.2,12.9-4.5,17.2-1.3c1.6,1.2,3.2,3.8,1,5.2c-1.4,0.9-4.3-0.2-5.7-0.3c-6.1-0.4-13.1,3-18.7,5.3c-5,2.1-6.5,5.5-10.2,9
			c-2.6,2.5-6.4,8.6-10.5,7.1c-2.1-0.8-2.7-3-5-3.5c-2.2-0.4-5.6,1.9-7.7,2.5c-6,1.7-12.6,2.2-18.7,1.3c-4.4-0.7-8.5-4.2-12.9-3.5
			c-6.4,1-12.2,2.3-18.8,2.5c-2.8,0.1-14.6,1.1-15.6-3.2c-1-4.2,11.3-0.6,13.4-0.6c5.8,0,11.5-0.8,17.2-1.3c1.6-0.1,4.2,0.4,4.6-1.5
			c0.6-2.5-2.3-5.2-1.4-8.3c2.4-8.2,16.1-24.5,25.9-16.6c3.8,3.1,2.5,11.9,0.5,15.7c-1.3,2.6-3.6,4.8-5.9,6.5
			C217.4,47.9,214.4,48.5,212.5,50.4z M220.9,29.1c-3.1,0.2-14.3,12.5-12.8,14.9C211.3,49.1,220.7,32.1,220.9,29.1z"/>
		<path d="M145.1,61.2c-4.9-0.1-10.1,0.9-14.8-0.7c-4.8-1.6-10-4-14.6-6.3c-4.9-2.4-8.6-5.8-11.9-10.1c-1.5-2-3.7-5,0.2-5.6
			c2.7-0.4,4.2,2.7,5.4,4.5c5.9,8.9,17.7,12.6,28,13c4.5,0.2,10.8,0.6,14.4-2.6c5.4-4.7,1.5-9.6-2.4-13.6
			c-7.6-7.7-21.2-11.9-26-22.2c-6.1-13,19.7-14.1,27-13.7c5.3,0.3,10.9,1.1,15.7,3.3c1.8,0.8,13.4,8.5,10.2,11.1
			c-1,0.8-10.9-4.7-12.7-5.2c-6.6-1.6-13.2-1.5-19.7,0.4c-1.9,0.5-6.9,1.4-7.7,3.5c-1.1,3,2.7,5.6,4.6,7.2c4.9,4,9.9,7.7,14.2,12.4
			c3.9,4.3,8.9,10,5.9,16.1C158.3,58,150.6,61.1,145.1,61.2z"/>
		<path d="M316.5,14.9c-0.1,6.1-8.7,0.4-8.2-3.9C308.9,5.2,316.6,10.9,316.5,14.9z"/>
	</g>
</g>
</svg>
