<?xml version="1.0" encoding="utf-8"?>
<!-- Generator: Adobe Illustrator 18.1.1, SVG Export Plug-In . SVG Version: 6.00 Build 0)  -->
<svg version="1.1" id="Layer_1" xmlns="http://www.w3.org/2000/svg" xmlns:xlink="http://www.w3.org/1999/xlink" x="0px" y="0px"
	 viewBox="0 0 260.9 65.2" enable-background="new 0 0 260.9 65.2" xml:space="preserve">
<path fill-rule="evenodd" clip-rule="evenodd" fill="#ebaf45" d="M28.7,33.7c0.3-0.9,0.7-1.8,1.1-2.7c1.5-3,2.1-4.6,6.4-4.7
	c2.3-0.1,9.5-0.4,11.6,0.2l0.3,0.3c1.4,0.9,1.7,3.3,2.5,4.7c0.4,0.7,1,1.5,1.6,2.2c0.9,1.1,1.9,2.2,2.8,3.1c4,3.9,11.8,6.4,18.2,7.9
	C70.9,50.9,63,61.4,55.5,62.2C39.9,63.8,23.8,48.7,28.7,33.7z M62.7,33.7c3.6,3.2,8,5.2,14.3,5.9c1.3-2.1,2.8-4,4.4-6h0
	c2.1-2.6,4.3-5.1,6.1-8h0c0,0,0,0,0,0c-1,0-2.5-0.2-3.6-0.2c-3.6,0-7.6,0.1-11.4,0.2v0c-1.7,0.1-3.5,0.1-5.1,0.3
	c-3.5,0.3-7.1-0.2-10.2,0.5c0.6,2.4,2.1,3.6,3.5,5.2C61.3,32.4,62,33.1,62.7,33.7L62.7,33.7z M112.1,15.9c1.7-1.1,3.1-2.5,5-3.5
	c3.4-1.7,6.9-3.7,11.5-4.1c2-0.2,4,0.2,5.3,0.8c1.9,0.9,1.2,2.2-0.2,3.1c-7.7,4.9-16.9,6.4-27.5,8.5
	C107.7,18.4,109.8,17.5,112.1,15.9z M48.7,19.7c-3.2,0.4-8.3,0.5-11.2-0.3c-1.1-0.3-0.9-0.6-0.5-1.3c1.6-2.8,4.3-4.5,6.3-6.8
	c3.1-3.5,7.8-6.7,13.5-7.4c2.3-0.3,1.5,0.5,2,0.8C52.8,8,50.4,12.1,48.7,19.7z M163.5,33.7c0.6-2.8,3.7-5.8,7.2-8h0
	c2.9-1.8,5.9-3,7.9-3c1.5,0,1,0.5,0.8,1.6c-0.1,0.6-0.1,1.1,0.1,1.5c0.5,1.3,1.9,1.7,1.8,3.4c0,0.4-0.6,2.2-0.9,2.7
	c-0.3,0.4-1.2,0.3-1.6,0.6c-0.5,0.4-1,0.8-1.5,1.3h0c-2.1,2-4.1,4.7-7.3,5.2c-2.3,0.3-3.8-0.2-4.9-1.1
	C163.6,36.6,163.2,35.2,163.5,33.7L163.5,33.7z M218.1,25.7c0.5,0.2,1,0.3,1.5,0.4c3.3,0.8,1.5,0.9-0.2,2.2c-1.1,0.8-4,3.1-7.4,5.4
	v0c-5.6,3.7-12.6,7.5-15.4,5.5c-2.1-1.5,0.6-3.9,1.4-5c0.1-0.2,0.2-0.3,0.3-0.4v0c1.2-1.5,2.5-2.8,4.1-4c1.6-1.2,3.4-2.9,5.4-4
	c1.1-0.6,2.2-1,3.5-1.1C213.9,24.3,216,25.1,218.1,25.7 M182,33.7c-1,0.8-2,1.8-3.1,3c-2.5,2.6-4.3,5.8-7.7,7.4
	c-0.3,0.1-0.5,0-0.8,0.2c-9.3,3.4-16.2-1.1-13.3-10.5h0c0.1-0.4,0.2-0.7,0.4-1.1c-0.8,0.3-1.4,0.7-1.9,1.1h0
	c-0.9,0.8-1.5,1.7-2.5,2.5c-4.7,3.7-18.2,12.6-26.1,5.8c-1.2-1.1-2.7-3-3.1-4.7c-0.3-1-0.2-2.4-0.3-3.6v0c0-1.3-0.1-2.5-0.8-3.2
	c-2.6,0.9-5.1,2-7.6,3.2h0c-2.3,1-4.5,2.1-6.8,3c-4.2,1.6-8.1,2.7-11.9,4.2c-3,1.2-6.5,2-9.7,2.8c-1.1,0.3-2.3,0.2-3.1,0.6
	c-2.1,1.1-3.6,4.3-5,6.1c-5,6.2-14.1,13.2-24,14.5c-5.9,0.7-12.6-0.6-17.1-2.4c-13-5-19.7-14.1-17.7-28.9v0c0.3-2.4,0.9-4.9,1.7-7.6
	c-3.6-0.8-8.4-0.1-11.8-0.3c-2.8-0.2-5.9,0-8.6-0.1v0c-0.3,0-0.6,0-0.8,0v-3.1c8.8-0.7,19.4-0.9,25.9-3.9c2.8-1.3,5.2-5.5,7.7-7.4
	c6.5-4.9,15.2-9.1,24.8-10.5c3-0.5,6.6-0.2,9.7-0.5c3.8-0.3,8.7-0.4,12.3,0.2c3.3,0.5,4.1,4.6,0.8,5.3C79,6.2,76,3.3,73.9,2.9
	c-4.8-0.9-11,2.9-13.2,4.9c-1.1,1-1.8,2.6-2.7,3.9C57.8,12,54.1,19,56.3,20c1.8,0.8,10.4-0.2,13,0c6,0.4,15.7,1.9,22,0.6
	c1.4-0.3,7.9-5.7,9.7-7.1c7.6-5.8,23.6-12.4,34.8-5.6c1.9,1.1,4.7,2.8,4.4,6c-0.2,2.2-2.7,3.1-4.4,3.9c-6,2.7-16,4.5-23.7,5.2
	c-2.2,0.2-3.9,0.6-5.8,0.8c-1.5,0.1-3.1-0.2-4.2,0.3c-0.6,0.3-1.2,0.9-1.7,1.6v0c-0.4,0.5-0.7,1-1.1,1.4c-1.5,1.6-3.5,2.9-4.9,4.6
	c-0.6,0.7-1.2,1.4-1.7,2.1h0c-1.3,1.6-2.7,3.2-4.2,4.5c5.9-0.4,12.1-2.6,17.4-4.5v0c0.6-0.2,1.2-0.4,1.8-0.7c4.6-1.7,9-2.8,13.4-4.9
	c1.5-0.7,3-1.6,4.5-2.5v0c2.7-1.6,5.5-3.4,8.2-4.8c2.6-1.3,5.2-1.6,8.2-2.4c2.1-0.6,4.3-1.9,6.6-2.2c4.9-0.6,6.7,3.8,3.3,5.5
	c-2.3,1.2-5.3-0.5-7.7-0.3c-2.8,0.2-6.4,1.9-9,4.1v0c-1.7,1.5-3,3.2-3.2,5c-0.1,1.1,0,2.1,0.2,3v0c0.5,1.6,1.6,2.8,2.9,3.4
	c1.9,0.9,4.2,1,6.6,0.6c3.5-0.5,6.4-2.2,8.9-4.1v0c0.8-0.6,1.6-1.2,2.4-1.8c0.9-0.7,1.5-1.8,2.4-2.5c1.7-1.3,3.8-2,5.7-3.1
	c0.3-0.2,0.6-0.4,0.9-0.6h0c2.4-1.7,4.7-3.7,7.6-4.9c2.9-1.2,11.5-2.8,14.5-1.9c-0.1,0.9-0.1,1.2-0.3,1.9c2.3,1.3,2.1,3.7,3.3,4.4
	c0.8,0.5,2.6,0.6,3.9,0.5c2.2-0.2,4.1-0.8,5.8-1.3c1.3-0.4,2.3-0.7,3.5-1.1c0.8-0.3,1.2-0.6,1.9-0.9c0.6-0.3,1-0.5,1.6-0.8
	c-1.9-0.4-4.6-1-6.9-0.8c-1.5,0.1-2.6,1.7-4.4,0.9c-0.1-0.1-0.2-0.1-0.2-0.1c-0.1-0.1-0.2-0.1-0.2-0.2c0,0,0,0,0-0.1
	c-1.1-1.6,0.5-3.3,1.6-3.8c3.6-1.4,10.2,2.3,14.5,0.8c1.5-0.5,4-1.7,5.3-2.7c1.9-1.3,3.7-4.1,6.3-4.6c4.9-0.9,8,0.8,4.2,3.9
	c-2.2,1.9-5.1,3-7.2,5c0.4,0.2,1.2,0.6,1.7,0.8c3.7,1,7.9,2,11.8,0.5c0.4-0.2,1.2-0.8,1.7-1.1c0.3-0.2,0.6-0.7,0.9-0.9
	c0.2-0.2,0.4-0.3,0.6-0.5c0.1-0.1,0.3-0.4,0.5-0.5c0.3-0.2,0.5-0.3,0.8-0.5c0.1-0.1,0.2-0.1,0.3-0.2c1.6-1.1,3.1-3.5,5.2-3.9
	c2.5-0.6,4.9,0.2,7.5,0.2c0.1,0.3,0.2,1.3,0.2,1.3c-1.6,2.8-5.8,3.8-8.3,5.7c-2,1.5-4.8,3.1,0.6,2.8c3.4-0.1,7.5-0.6,10.7-1.4
	c3.5-0.9,6.1-4,10.4-3.6c-0.1,1.3-0.3,2.3-1.1,2.8c-1.6,1-3.9,0.8-5.8,1.6c-1.6,0.7-3.2,1.7-4.7,2.6h0c-0.5,0.3-1,0.5-1.6,0.7
	c-2.3,0.9-5.4,1.3-8,1.6c-3,0.3-5.7-1-8.5-0.5c-1.8,0.4-5.8,3.2-8.4,6.2h0c-1.7,2-2.9,4-2.3,5.3c2.4,5.6,11.2,1.1,13.8-1.3
	c1-0.9,1.7-3,3-3.6c0.3-0.2,0.7-0.3,1.2-0.4v0c0.7-0.2,1.4-0.4,1.8-0.5c1.3-0.4,1.9-0.5,2.2,0.5c0,0.1,0.1,0.3,0.1,0.4
	c-5.8,3.2-8.7,9.5-15.6,11.5c-5.3,1.5-12.8,0.3-14.1-3.8c-0.7-2.1,0.4-4.7,0.8-5.8c-2.4,0.9-3.9,2.7-6,3.9c-3.4,2.1-7.2,4-11.9,4.7
	c-2.8,0.4-5.8-0.6-6.9-2.4c-2.3-3.5-0.9-6.3,1.5-8.6h0c2.7-2.6,6.7-4.6,8.1-6.5c0.1,0,0.4-0.5-0.2-0.5c-1.8,0-4.3,1.6-6,2
	C187.6,30.1,184.7,31.5,182,33.7L182,33.7z"/>
</svg>
